<svg width="76" height="10" viewBox="0 0 76 10" fill="none" xmlns="http://www.w3.org/2000/svg">
<path d="M4.92 9.216C4.384 9.216 3.912 9.104 3.504 8.88C3.096 8.648 2.776 8.316 2.544 7.884C2.312 7.452 2.188 6.924 2.172 6.3H2.4V9H0.876V0.24H2.796V4.692L2.34 5.268C2.364 4.604 2.488 4.048 2.712 3.6C2.944 3.144 3.26 2.804 3.66 2.58C4.06 2.348 4.516 2.232 5.028 2.232C5.476 2.232 5.88 2.316 6.24 2.484C6.608 2.644 6.92 2.876 7.176 3.18C7.432 3.476 7.628 3.828 7.764 4.236C7.908 4.644 7.98 5.088 7.98 5.568V5.832C7.98 6.312 7.908 6.756 7.764 7.164C7.628 7.572 7.424 7.932 7.152 8.244C6.888 8.548 6.568 8.788 6.192 8.964C5.816 9.132 5.392 9.216 4.92 9.216ZM4.416 7.608C4.744 7.608 5.028 7.528 5.268 7.368C5.516 7.208 5.708 6.984 5.844 6.696C5.98 6.4 6.048 6.068 6.048 5.7C6.048 5.324 5.98 4.996 5.844 4.716C5.708 4.436 5.516 4.22 5.268 4.068C5.028 3.908 4.744 3.828 4.416 3.828C4.128 3.828 3.856 3.896 3.6 4.032C3.344 4.168 3.136 4.364 2.976 4.62C2.824 4.868 2.748 5.172 2.748 5.532V5.976C2.748 6.32 2.828 6.616 2.988 6.864C3.156 7.104 3.368 7.288 3.624 7.416C3.88 7.544 4.144 7.608 4.416 7.608ZM9.3135 9V2.424H10.8375V5.244H10.8015C10.8015 4.316 10.9975 3.6 11.3895 3.096C11.7895 2.592 12.3655 2.34 13.1175 2.34H13.3695V3.996H12.8895C12.3615 3.996 11.9535 4.14 11.6655 4.428C11.3775 4.708 11.2335 5.116 11.2335 5.652V9H9.3135ZM16.5843 9.204C15.8243 9.204 15.2403 8.96 14.8323 8.472C14.4243 7.976 14.2203 7.232 14.2203 6.24V2.424H16.1403V6.336C16.1403 6.688 16.2403 6.968 16.4403 7.176C16.6403 7.384 16.9083 7.488 17.2443 7.488C17.5883 7.488 17.8683 7.38 18.0843 7.164C18.3003 6.948 18.4083 6.656 18.4083 6.288V2.424H20.3283V9H18.8043V6.228H18.9363C18.9363 6.892 18.8483 7.448 18.6723 7.896C18.5043 8.336 18.2523 8.664 17.9163 8.88C17.5803 9.096 17.1643 9.204 16.6683 9.204H16.5843ZM22.0987 9V2.424H23.6227V5.244H23.5147C23.5147 4.572 23.5987 4.012 23.7667 3.564C23.9427 3.116 24.2067 2.78 24.5587 2.556C24.9107 2.332 25.3387 2.22 25.8427 2.22H25.9267C26.6947 2.22 27.2787 2.472 27.6787 2.976C28.0867 3.472 28.2907 4.228 28.2907 5.244V9H26.3707V5.136C26.3707 4.784 26.2667 4.496 26.0587 4.272C25.8507 4.048 25.5707 3.936 25.2187 3.936C24.8587 3.936 24.5667 4.052 24.3427 4.284C24.1267 4.508 24.0187 4.804 24.0187 5.172V9H22.0987ZM33.1308 9.228C32.5548 9.228 32.0428 9.14 31.5948 8.964C31.1468 8.78 30.7668 8.532 30.4548 8.22C30.1508 7.908 29.9188 7.552 29.7588 7.152C29.5988 6.744 29.5188 6.316 29.5188 5.868V5.592C29.5188 5.136 29.5988 4.704 29.7588 4.296C29.9268 3.88 30.1668 3.516 30.4788 3.204C30.7988 2.892 31.1828 2.648 31.6308 2.472C32.0788 2.288 32.5788 2.196 33.1308 2.196C33.6988 2.196 34.2028 2.288 34.6428 2.472C35.0908 2.648 35.4708 2.892 35.7828 3.204C36.0948 3.516 36.3348 3.88 36.5028 4.296C36.6708 4.704 36.7548 5.136 36.7548 5.592V5.868C36.7548 6.316 36.6748 6.744 36.5148 7.152C36.3548 7.552 36.1188 7.908 35.8068 8.22C35.5028 8.532 35.1268 8.78 34.6788 8.964C34.2308 9.14 33.7148 9.228 33.1308 9.228ZM33.1308 7.608C33.5068 7.608 33.8188 7.528 34.0668 7.368C34.3148 7.208 34.5028 6.984 34.6308 6.696C34.7668 6.408 34.8348 6.088 34.8348 5.736C34.8348 5.36 34.7668 5.032 34.6308 4.752C34.4948 4.464 34.2988 4.236 34.0428 4.068C33.7948 3.9 33.4908 3.816 33.1308 3.816C32.7788 3.816 32.4748 3.9 32.2188 4.068C31.9628 4.236 31.7668 4.464 31.6308 4.752C31.5028 5.032 31.4388 5.36 31.4388 5.736C31.4388 6.088 31.5028 6.408 31.6308 6.696C31.7588 6.984 31.9508 7.208 32.2068 7.368C32.4628 7.528 32.7708 7.608 33.1308 7.608ZM42.7846 9L44.0806 2.808H45.6406L47.1526 9H46.1686L44.6566 2.832H45.0406L43.7326 9H42.7846ZM42.1966 9V8.088H43.5286V9H42.1966ZM41.9326 9L40.1206 2.592H41.2246L42.9886 9H41.9326ZM46.4086 9V8.088H47.7406V9H46.4086ZM46.9486 9L48.4846 2.592H49.5286L47.9566 9H46.9486ZM54.9136 9V7.08H54.7216V4.86C54.7216 4.42 54.6056 4.088 54.3736 3.864C54.1496 3.64 53.8176 3.528 53.3776 3.528C53.1296 3.528 52.8736 3.532 52.6096 3.54C52.3456 3.548 52.0936 3.556 51.8536 3.564C51.6136 3.572 51.4056 3.584 51.2296 3.6V2.592C51.4056 2.576 51.5896 2.564 51.7816 2.556C51.9816 2.54 52.1856 2.532 52.3936 2.532C52.6016 2.524 52.8016 2.52 52.9936 2.52C53.6496 2.52 54.1856 2.6 54.6016 2.76C55.0176 2.912 55.3256 3.164 55.5256 3.516C55.7256 3.868 55.8256 4.344 55.8256 4.944V9H54.9136ZM52.8136 9.168C52.3336 9.168 51.9176 9.088 51.5656 8.928C51.2216 8.76 50.9536 8.52 50.7616 8.208C50.5776 7.896 50.4856 7.52 50.4856 7.08C50.4856 6.624 50.5856 6.244 50.7856 5.94C50.9936 5.636 51.2936 5.408 51.6856 5.256C52.0776 5.096 52.5496 5.016 53.1016 5.016H54.8416V5.88H53.0536C52.5896 5.88 52.2336 5.992 51.9856 6.216C51.7376 6.44 51.6136 6.728 51.6136 7.08C51.6136 7.432 51.7376 7.716 51.9856 7.932C52.2336 8.148 52.5896 8.256 53.0536 8.256C53.3256 8.256 53.5856 8.208 53.8336 8.112C54.0816 8.008 54.2856 7.84 54.4456 7.608C54.6136 7.368 54.7056 7.04 54.7216 6.624L55.0336 7.08C54.9936 7.536 54.8816 7.92 54.6976 8.232C54.5216 8.536 54.2736 8.768 53.9536 8.928C53.6416 9.088 53.2616 9.168 52.8136 9.168ZM57.9399 9V2.592H58.8519V5.34H58.7079C58.7079 4.708 58.7919 4.176 58.9599 3.744C59.1359 3.304 59.3999 2.972 59.7519 2.748C60.1039 2.516 60.5479 2.4 61.0839 2.4H61.1319C61.9399 2.4 62.5359 2.652 62.9199 3.156C63.3119 3.66 63.5079 4.388 63.5079 5.34V9H62.3559V5.1C62.3559 4.604 62.2159 4.208 61.9359 3.912C61.6559 3.608 61.2719 3.456 60.7839 3.456C60.2799 3.456 59.8719 3.612 59.5599 3.924C59.2479 4.236 59.0919 4.652 59.0919 5.172V9H57.9399ZM68.2917 9.216C67.8357 9.216 67.4157 9.132 67.0317 8.964C66.6477 8.796 66.3117 8.56 66.0237 8.256C65.7437 7.952 65.5237 7.6 65.3637 7.2C65.2117 6.8 65.1357 6.368 65.1357 5.904V5.688C65.1357 5.232 65.2117 4.804 65.3637 4.404C65.5157 4.004 65.7277 3.652 65.9997 3.348C66.2797 3.044 66.6077 2.808 66.9837 2.64C67.3677 2.464 67.7917 2.376 68.2557 2.376C68.7437 2.376 69.1877 2.48 69.5877 2.688C69.9877 2.888 70.3157 3.204 70.5717 3.636C70.8277 4.068 70.9717 4.628 71.0037 5.316L70.5237 4.548V0.24H71.6757V9H70.7637V6.156H71.0997C71.0677 6.884 70.9157 7.476 70.6437 7.932C70.3717 8.38 70.0277 8.708 69.6117 8.916C69.2037 9.116 68.7637 9.216 68.2917 9.216ZM68.4477 8.208C68.8397 8.208 69.1957 8.12 69.5157 7.944C69.8357 7.768 70.0917 7.516 70.2837 7.188C70.4757 6.852 70.5717 6.46 70.5717 6.012V5.46C70.5717 5.02 70.4717 4.648 70.2717 4.344C70.0797 4.032 69.8197 3.796 69.4917 3.636C69.1717 3.468 68.8197 3.384 68.4357 3.384C68.0117 3.384 67.6357 3.484 67.3077 3.684C66.9877 3.884 66.7357 4.164 66.5517 4.524C66.3757 4.884 66.2877 5.308 66.2877 5.796C66.2877 6.284 66.3797 6.712 66.5637 7.08C66.7477 7.44 67.0037 7.72 67.3317 7.92C67.6597 8.112 68.0317 8.208 68.4477 8.208Z" fill="white"/>
<path d="M73.6612 9V7.536H75.0532V9H73.6612Z" fill="#FF0000"/>
</svg>
